<svg width="360" height="280" viewBox="0 0 360 280" fill="none" xmlns="http://www.w3.org/2000/svg">
  <defs>
    <linearGradient id="paint0_linear" x1="36" y1="28" x2="324" y2="252" gradientUnits="userSpaceOnUse">
      <stop stop-color="#FDF2E9" />
      <stop offset="0.5" stop-color="#FEE4D6" />
      <stop offset="1" stop-color="#FDCFBE" />
    </linearGradient>
    <linearGradient id="paint1_linear" x1="64" y1="72" x2="296" y2="208" gradientUnits="userSpaceOnUse">
      <stop stop-color="#F7C948" />
      <stop offset="1" stop-color="#F97316" />
    </linearGradient>
    <linearGradient id="paint2_linear" x1="120" y1="168" x2="240" y2="240" gradientUnits="userSpaceOnUse">
      <stop stop-color="#6366F1" />
      <stop offset="1" stop-color="#8B5CF6" />
    </linearGradient>
  </defs>
  <rect x="20" y="16" width="320" height="248" rx="32" fill="url(#paint0_linear)" />
  <rect x="52" y="56" width="256" height="160" rx="28" fill="white" stroke="#FED7AA" stroke-width="4" />
  <rect x="68" y="72" width="224" height="96" rx="20" fill="#FFF7ED" />
  <path d="M96 96H264" stroke="#FDBA74" stroke-width="6" stroke-linecap="round" />
  <path d="M96 120H264" stroke="#FDBA74" stroke-width="6" stroke-linecap="round" />
  <path d="M96 144H208" stroke="#FDBA74" stroke-width="6" stroke-linecap="round" />
  <circle cx="120" cy="192" r="28" fill="#FED7AA" />
  <circle cx="180" cy="192" r="28" fill="#FDBA74" />
  <circle cx="240" cy="192" r="28" fill="#FB923C" />
  <rect x="120" y="168" width="120" height="64" rx="16" fill="url(#paint1_linear)" opacity="0.35" />
  <path d="M116 210C120 202 140 184 152 194C166 206 178 164 198 174C218 184 230 210 244 214" stroke="url(#paint2_linear)" stroke-width="8" stroke-linecap="round" fill="none" />
  <circle cx="92" cy="44" r="6" fill="#FDBA74" />
  <circle cx="112" cy="44" r="6" fill="#FDBA74" />
  <circle cx="132" cy="44" r="6" fill="#FDBA74" />
</svg>
